<svg width="148" height="100" viewBox="0 0 148 100" fill="none" xmlns="http://www.w3.org/2000/svg">
<rect width="147.929" height="49.9291" transform="translate(0 0.0709381)" fill="white"/>
<path d="M18.3958 30.6793L22.4056 21.5774L22.5721 21.2028C23.8949 18.2151 24.5562 16.4484 24.5562 15.9026C24.5562 15.8841 24.5516 15.8564 24.5424 15.8194C24.5331 15.7824 24.5285 15.7547 24.5285 15.7362C25.0742 15.7639 25.5645 15.787 25.9992 15.8055C26.4432 15.8148 26.8363 15.8194 27.1786 15.8194C27.5023 15.8194 27.8769 15.8148 28.3024 15.8055C28.7279 15.787 29.195 15.7639 29.7038 15.7362V16.6935H29.5373C28.7325 16.6935 28.1776 16.8323 27.8723 17.1098C27.5763 17.3872 27.4283 17.8821 27.4283 18.5944C27.4283 18.8719 27.4468 19.4916 27.4838 20.4536C27.5208 21.4156 27.5671 22.4562 27.6226 23.5754L27.8584 27.4742L27.8723 27.8488C28.0758 31.3083 28.2331 33.2646 28.344 33.7179C28.3995 33.9861 28.5707 34.1942 28.8574 34.3422C29.1442 34.4902 29.5188 34.5642 29.9813 34.5642H30.3281V35.5355C29.5974 35.4985 28.9175 35.4707 28.2886 35.4522C27.6596 35.4337 27.1369 35.4245 26.7207 35.4245C26.2305 35.4245 25.6801 35.4337 25.0696 35.4522C24.4591 35.4707 23.807 35.4985 23.1133 35.5355V34.5365C23.1965 34.5365 23.3029 34.5411 23.4324 34.5504C23.5619 34.5596 23.6544 34.5642 23.7099 34.5642C24.4129 34.5642 24.8985 34.4394 25.1667 34.1896C25.4442 33.9399 25.583 33.4866 25.583 32.8299C25.583 32.5246 25.5783 32.224 25.5691 31.928C25.5598 31.632 25.546 31.3268 25.5275 31.0123L24.9864 19.08L19.2977 32.1639C19.2884 32.1824 19.2699 32.224 19.2422 32.2888C18.7982 33.2045 18.4698 34.1804 18.2571 35.2163H17.3413C17.2119 34.6429 16.8881 33.7641 16.3701 32.5801L16.3146 32.4553L10.7231 19.7876C10.6676 20.7773 10.589 22.137 10.4872 23.8668C10.2282 28.1587 10.0987 30.8458 10.0987 31.928V32.0668C10.0987 33.2415 10.2282 33.9537 10.4872 34.2035C10.7555 34.444 11.2966 34.5642 12.1106 34.5642H12.4019V35.5355C11.8007 35.4985 11.2226 35.4707 10.6676 35.4522C10.1218 35.4337 9.58997 35.4245 9.07198 35.4245C8.70199 35.4245 8.23949 35.4337 7.6845 35.4522C7.13876 35.4707 6.5514 35.4985 5.92241 35.5355V34.5642H6.3109C6.83814 34.5642 7.23126 34.4995 7.49026 34.37C7.74925 34.2405 7.95275 34.0139 8.10075 33.6901C8.27649 33.3109 8.45687 31.7754 8.64186 29.0837C8.68811 28.3437 8.72974 27.7563 8.76674 27.3216L9.01648 23.9639V23.9223C9.26623 20.6016 9.3911 18.7146 9.3911 18.2614C9.3911 17.6786 9.24773 17.2716 8.96098 17.0404C8.68349 16.8091 8.15162 16.6935 7.36538 16.6935H7.14339V15.7362C7.21739 15.7362 7.33763 15.7408 7.50413 15.75C8.57711 15.8148 9.32635 15.8471 9.75185 15.8471C10.0756 15.8471 10.6907 15.8194 11.5972 15.7639C11.8839 15.7454 12.1013 15.7362 12.2493 15.7362V15.8194C12.2493 16.6426 13.8172 20.5276 16.9529 27.4742L18.3958 30.6793ZM44.2307 27.7795H37.4598C36.9325 27.7795 36.4469 27.7887 36.0029 27.8072C35.5589 27.8257 35.1473 27.8535 34.7681 27.8905V28.4038C34.7681 30.2168 35.1843 31.6181 36.0168 32.6079C36.8585 33.5976 38.0425 34.0925 39.5687 34.0925C40.244 34.0925 40.91 33.9815 41.5667 33.7595C42.2235 33.5282 42.9218 33.1721 43.6618 32.6911L44.2029 33.5791C43.2502 34.3561 42.2975 34.9435 41.3447 35.3412C40.4012 35.739 39.467 35.9378 38.542 35.9378C36.7475 35.9378 35.2676 35.2996 34.1021 34.0231C32.9366 32.7374 32.3539 31.0909 32.3539 29.0837C32.3539 26.947 32.9644 25.1525 34.1853 23.7003C35.4063 22.248 36.8955 21.5219 38.653 21.5219C40.2902 21.5219 41.5945 22.0677 42.5657 23.1592C43.5369 24.2506 44.0919 25.7907 44.2307 27.7795ZM41.6638 26.3226C41.3863 25.1849 40.9655 24.3154 40.4012 23.7141C39.837 23.1037 39.1618 22.7984 38.3755 22.7984C37.4875 22.7984 36.7244 23.1545 36.0862 23.8668C35.4572 24.579 35.0456 25.541 34.8513 26.7527C36.6828 26.7527 38.1211 26.7204 39.1664 26.6556C40.2209 26.5909 41.0533 26.4799 41.6638 26.3226ZM59.9647 28.6813C59.9647 29.6803 59.7936 30.6192 59.4513 31.4979C59.1183 32.3674 58.6466 33.1305 58.0361 33.7872C57.4256 34.444 56.6902 34.962 55.83 35.3412C54.979 35.7205 54.0355 35.9101 52.9995 35.9101C52.0375 35.9101 51.1588 35.7251 50.3633 35.3551C49.5771 34.9851 48.9018 34.4532 48.3376 33.7595C47.7826 33.0565 47.3525 32.1963 47.0473 31.1788C46.742 30.1613 46.5894 29.0004 46.5894 27.6962C46.5894 26.1052 46.705 24.7363 46.9363 23.5893C47.1768 22.433 47.482 21.4572 47.852 20.6617C48.222 19.857 48.6382 19.2048 49.1007 18.7054C49.5632 18.2059 50.0211 17.8127 50.4743 17.526C50.9368 17.23 51.3669 17.0219 51.7647 16.9016C52.1717 16.7814 52.5 16.6935 52.7498 16.638L55.0253 16.1801C55.349 16.1154 55.6866 16.0506 56.0381 15.9859C56.3989 15.9211 56.7457 15.824 57.0787 15.6945C57.421 15.565 57.7401 15.3893 58.0361 15.1673C58.3321 14.9453 58.5772 14.64 58.7714 14.2515L59.5484 14.4458C59.4559 14.8713 59.3357 15.269 59.1877 15.639C59.0397 15.9998 58.8824 16.3281 58.7159 16.6241C58.5494 16.9201 58.3783 17.1884 58.2026 17.4289C58.0268 17.6694 57.865 17.8775 57.717 18.0532L53.4158 18.747C52.6388 18.8672 51.9636 19.0291 51.3901 19.2326C50.8258 19.4268 50.3402 19.7043 49.9332 20.0651C49.5355 20.4258 49.2163 20.8837 48.9758 21.4387C48.7446 21.9937 48.5735 22.6874 48.4625 23.5199L48.3099 24.6299L48.5735 24.7409C49.2302 23.8529 50.0118 23.1777 50.9183 22.7152C51.8341 22.2434 52.7868 22.0076 53.7765 22.0076C54.535 22.0076 55.2842 22.1509 56.0242 22.4377C56.7642 22.7152 57.4256 23.1314 58.0083 23.6864C58.5911 24.2414 59.0628 24.9351 59.4236 25.7676C59.7843 26.6001 59.9647 27.5713 59.9647 28.6813ZM53.166 23.5199C52.5648 23.5199 52.0144 23.6448 51.5149 23.8945C51.0247 24.1443 50.6038 24.505 50.2523 24.9768C49.9008 25.4392 49.628 26.0035 49.4337 26.6695C49.2395 27.3262 49.1423 28.0662 49.1423 28.8894C49.1423 29.7774 49.2626 30.5729 49.5031 31.2759C49.7436 31.9696 50.0627 32.5616 50.4604 33.0519C50.8582 33.5329 51.3068 33.9029 51.8063 34.1619C52.315 34.4116 52.833 34.5365 53.3603 34.5365C53.98 34.5365 54.5443 34.4162 55.053 34.1757C55.5617 33.9352 55.9965 33.5884 56.3572 33.1351C56.718 32.6819 56.9955 32.1269 57.1897 31.4702C57.384 30.8042 57.4811 30.0503 57.4811 29.2086C57.4811 28.2836 57.3655 27.465 57.1342 26.7527C56.903 26.0405 56.5885 25.4485 56.1907 24.9768C55.8022 24.4958 55.3444 24.135 54.8171 23.8945C54.2991 23.6448 53.7488 23.5199 53.166 23.5199ZM73.784 27.7795H67.0131C66.4858 27.7795 66.0002 27.7887 65.5562 27.8072C65.1122 27.8257 64.7006 27.8535 64.3214 27.8905V28.4038C64.3214 30.2168 64.7376 31.6181 65.5701 32.6079C66.4118 33.5976 67.5958 34.0925 69.122 34.0925C69.7973 34.0925 70.4633 33.9815 71.12 33.7595C71.7767 33.5282 72.4751 33.1721 73.2151 32.6911L73.7562 33.5791C72.8035 34.3561 71.8507 34.9435 70.898 35.3412C69.9545 35.739 69.0203 35.9378 68.0953 35.9378C66.3008 35.9378 64.8208 35.2996 63.6554 34.0231C62.4899 32.7374 61.9071 31.0909 61.9071 29.0837C61.9071 26.947 62.5176 25.1525 63.7386 23.7003C64.9596 22.248 66.4488 21.5219 68.2063 21.5219C69.8435 21.5219 71.1477 22.0677 72.119 23.1592C73.0902 24.2506 73.6452 25.7907 73.784 27.7795ZM71.2171 26.3226C70.9396 25.1849 70.5188 24.3154 69.9545 23.7141C69.3903 23.1037 68.715 22.7984 67.9288 22.7984C67.0408 22.7984 66.2777 23.1545 65.6395 23.8668C65.0105 24.579 64.5989 25.541 64.4046 26.7527C66.2361 26.7527 67.6744 26.7204 68.7197 26.6556C69.7741 26.5909 70.6066 26.4799 71.2171 26.3226ZM79.7917 25.3097C79.8102 24.9953 79.8287 24.6946 79.8472 24.4079C79.8657 24.1119 79.838 23.8529 79.764 23.6309C79.6992 23.4089 79.5697 23.2332 79.3755 23.1037C79.1812 22.9649 78.8899 22.8955 78.5014 22.8955H78.1823V21.9243C78.6355 21.9428 79.0379 21.9613 79.3894 21.9798C79.7501 21.9891 80.1109 21.9983 80.4716 22.0076C80.8323 22.0168 81.2116 22.0261 81.6093 22.0353C82.0163 22.0446 82.4881 22.0492 83.0246 22.0492C85.2168 22.0492 87.2147 22.0076 89.0185 21.9243V22.8955H88.6993C88.3016 22.8955 87.9917 22.9834 87.7697 23.1592C87.557 23.3349 87.3997 23.58 87.298 23.8945C87.2055 24.1998 87.15 24.5651 87.1315 24.9906C87.113 25.4069 87.1037 25.8601 87.1037 26.3504V31.817C87.1037 32.1963 87.113 32.5524 87.1315 32.8854C87.15 33.2184 87.2055 33.5097 87.298 33.7595C87.3997 34.0092 87.557 34.2081 87.7697 34.3561C87.9917 34.4949 88.3016 34.5642 88.6993 34.5642H89.0185V35.5355C88.2877 35.48 87.668 35.443 87.1592 35.4245C86.6505 35.406 86.2574 35.3967 85.9799 35.3967C85.8319 35.3967 85.67 35.4013 85.4943 35.4106C85.3185 35.4106 85.1289 35.4152 84.9254 35.4245C84.7219 35.4337 84.449 35.4476 84.1068 35.4661C83.7738 35.4846 83.3576 35.5077 82.8581 35.5355V34.5642H83.2188C83.746 34.5642 84.1438 34.2867 84.412 33.7317C84.6895 33.1675 84.8283 32.3396 84.8283 31.2482V23.4228C84.4953 23.395 84.19 23.3765 83.9125 23.3673C83.6443 23.3488 83.3714 23.3395 83.0939 23.3395C82.8072 23.3395 82.5204 23.3488 82.2337 23.3673C81.9469 23.3765 81.6371 23.395 81.3041 23.4228C81.2023 24.357 81.1006 25.356 80.9988 26.4197C80.8971 27.4742 80.7445 28.5472 80.541 29.6387C80.356 30.6099 80.1525 31.4794 79.9305 32.2471C79.7085 33.0056 79.4449 33.6485 79.1396 34.1757C78.8436 34.703 78.506 35.1053 78.1268 35.3828C77.7475 35.6603 77.3081 35.7991 76.8087 35.7991C76.3184 35.7991 75.9207 35.6557 75.6154 35.369C75.3102 35.0822 75.1576 34.6983 75.1576 34.2174C75.1576 34.0231 75.1807 33.8381 75.2269 33.6624C75.2732 33.4866 75.3426 33.334 75.4351 33.2045C75.5276 33.0658 75.6478 32.9594 75.7958 32.8854C75.9438 32.8021 76.1242 32.7605 76.3369 32.7605C76.5312 32.7605 76.6838 32.7975 76.7948 32.8715C76.915 32.9455 77.0168 33.0288 77.1 33.1212C77.1833 33.2137 77.2619 33.297 77.3359 33.371C77.4099 33.445 77.5024 33.482 77.6134 33.482C77.7614 33.482 77.9001 33.4172 78.0296 33.2877C78.1684 33.1582 78.2979 32.9455 78.4181 32.6495C78.5476 32.3443 78.6771 31.9465 78.8066 31.4563C78.9361 30.966 79.0702 30.3555 79.209 29.6248C79.2737 29.2918 79.3339 28.9403 79.3894 28.5703C79.4541 28.2003 79.5096 27.8257 79.5559 27.4465C79.6114 27.0672 79.6576 26.6972 79.6946 26.3365C79.7409 25.9665 79.7732 25.6242 79.7917 25.3097ZM97.3711 35.5771C97.0473 35.5771 96.7375 35.5678 96.4415 35.5493C96.1547 35.5308 95.868 35.5123 95.5812 35.4938C95.3037 35.4661 95.0216 35.443 94.7349 35.4245C94.4481 35.406 94.1475 35.3967 93.833 35.3967C93.3613 35.3967 92.8803 35.4106 92.39 35.4383C91.909 35.4568 91.3494 35.4892 90.7112 35.5355V34.5642H91.0303C91.4373 34.5642 91.7564 34.444 91.9877 34.2035C92.2189 33.9537 92.39 33.6531 92.501 33.3016C92.6213 32.9409 92.6953 32.5616 92.723 32.1639C92.7508 31.7569 92.7646 31.4008 92.7646 31.0955V26.3504C92.7646 25.5641 92.7369 24.9398 92.6814 24.4773C92.6259 24.0148 92.5288 23.6679 92.39 23.4367C92.2605 23.2054 92.0848 23.0574 91.8628 22.9927C91.65 22.9279 91.3818 22.8955 91.0581 22.8955H90.7389V21.9243C91.5437 21.9798 92.1727 22.0168 92.6259 22.0353C93.0791 22.0538 93.4445 22.0631 93.722 22.0631C94.018 22.0631 94.4435 22.0538 94.9985 22.0353C95.5627 22.0168 96.2472 21.9798 97.052 21.9243V22.8955H96.6635C96.2472 22.8955 95.9281 22.9834 95.7061 23.1592C95.4841 23.3257 95.3269 23.543 95.2344 23.8113C95.1419 24.0703 95.091 24.3663 95.0817 24.6993C95.0725 25.0323 95.0679 25.356 95.0679 25.6705L95.0401 27.2938C95.7709 27.1273 96.5016 27.0441 97.2323 27.0441C97.9538 27.0441 98.6337 27.132 99.2719 27.3077C99.9194 27.4835 100.484 27.7471 100.965 28.0986C101.455 28.4408 101.843 28.8756 102.13 29.4028C102.417 29.9301 102.56 30.5452 102.56 31.2482C102.56 31.8309 102.435 32.3859 102.186 32.9131C101.945 33.4311 101.598 33.889 101.145 34.2867C100.692 34.6752 100.146 34.9897 99.5078 35.2302C98.8696 35.4615 98.1573 35.5771 97.3711 35.5771ZM95.1234 28.4038C95.1049 28.8571 95.0864 29.3473 95.0679 29.8746C95.0586 30.3925 95.054 30.9105 95.054 31.4285C95.054 31.9465 95.0586 32.4414 95.0679 32.9131C95.0864 33.3849 95.1049 33.8011 95.1234 34.1619C95.6691 34.3284 96.238 34.4162 96.83 34.4255C97.4219 34.4347 97.9631 34.333 98.4533 34.1202C98.9436 33.9075 99.3459 33.5652 99.6604 33.0935C99.9842 32.6218 100.146 31.9928 100.146 31.2065C100.146 30.707 100.054 30.2677 99.8685 29.8884C99.6835 29.5092 99.4292 29.1947 99.1054 28.9449C98.7909 28.6859 98.4209 28.4963 97.9954 28.3761C97.5792 28.2466 97.1398 28.1818 96.6773 28.1818C96.4276 28.1818 96.1686 28.2003 95.9003 28.2373C95.6414 28.2743 95.3824 28.3298 95.1234 28.4038Z" fill="black"/>
<rect width="147.929" height="49.9291" transform="translate(0 50)" fill="black"/>
<path d="M11.4584 75.6828C11.9024 75.7291 12.3187 75.7614 12.7072 75.7799C13.1049 75.7984 13.4564 75.8077 13.7617 75.8077C14.0207 75.8077 14.3166 75.8031 14.6496 75.7938C14.9826 75.7753 15.3434 75.7476 15.7319 75.7106C16.6199 75.1741 17.272 74.5543 17.6882 73.8513C18.1045 73.1391 18.3126 72.2927 18.3126 71.3122C18.3126 70.0265 17.8963 68.9952 17.0639 68.2182C16.2314 67.4412 15.1121 67.0527 13.7062 67.0527C13.3269 67.0527 12.9569 67.0712 12.5962 67.1082C12.2354 67.1359 11.8793 67.1822 11.5278 67.2469C11.5001 68.3939 11.4816 69.5733 11.4723 70.785C11.4631 71.9967 11.4584 73.6293 11.4584 75.6828ZM6.51902 84.5627C6.58377 84.5719 6.64389 84.5812 6.69939 84.5904C6.76414 84.5904 6.85664 84.5904 6.97689 84.5904C8.20712 84.5904 8.83149 82.8607 8.84998 79.4012C8.85923 78.5318 8.86848 77.8519 8.87773 77.3617L8.93323 73.5738C8.94248 72.7599 8.94711 71.969 8.94711 71.2013C8.95636 70.4335 8.96098 69.601 8.96098 68.7038C8.96098 67.9083 8.81299 67.3579 8.51699 67.0527C8.22099 66.7474 7.69375 66.5948 6.93527 66.5948H6.82427V65.6236C7.44401 65.6698 8.0545 65.7022 8.65574 65.7207C9.26623 65.7392 9.85822 65.7485 10.4317 65.7485C11.0514 65.7485 11.8192 65.73 12.7349 65.693C13.6599 65.6467 14.275 65.6236 14.5803 65.6236C16.4765 65.6236 18.0305 66.1231 19.2422 67.1221C20.4539 68.121 21.0598 69.3744 21.0598 70.8821C21.0598 72.0014 20.7545 73.0003 20.1441 73.8791C19.5428 74.7486 18.6363 75.4932 17.4246 76.1129L20.0192 80.0395C20.1117 80.1875 20.2504 80.4002 20.4354 80.6777C22.2299 83.4157 23.7006 84.7847 24.8476 84.7847H24.9864V85.5755C24.8569 85.5848 24.6626 85.6033 24.4036 85.631C23.8024 85.6865 23.363 85.7143 23.0855 85.7143C22.105 85.7143 21.328 85.5848 20.7545 85.3258C20.1903 85.0575 19.6307 84.5442 19.0757 83.7857C18.9832 83.6654 18.4698 82.8422 17.5356 81.316C16.6106 79.7897 15.6764 78.3514 14.7329 77.0009C14.3814 77.0379 14.0068 77.0657 13.609 77.0842C13.2113 77.1027 12.7719 77.1119 12.2909 77.1119H11.4584V81.3715C11.4584 82.7589 11.6018 83.6377 11.8886 84.0077C12.1753 84.3684 12.7442 84.5488 13.5952 84.5488C13.6229 84.5488 13.6599 84.5442 13.7062 84.5349C13.7524 84.5257 13.7894 84.521 13.8172 84.521C13.8542 84.521 13.8819 84.5257 13.9004 84.5349C13.9282 84.5442 13.9467 84.5488 13.9559 84.5488V85.4645C13.2992 85.4275 12.647 85.3998 11.9996 85.3813C11.3521 85.3628 10.7092 85.3535 10.071 85.3535C9.72872 85.3535 9.24773 85.3628 8.62799 85.3813C8.00825 85.3998 7.30526 85.4275 6.51902 85.4645V84.5627ZM26.8039 65.6652C28.4227 65.7207 29.8703 65.7623 31.1468 65.7901C32.4232 65.8178 33.524 65.8317 34.449 65.8317C35.4757 65.8317 36.5117 65.8178 37.5569 65.7901C38.6114 65.7623 39.6797 65.7207 40.762 65.6652C40.7712 66.359 40.799 67.0712 40.8452 67.8019C40.8915 68.5234 40.947 69.2495 41.0117 69.9803L40.0821 70.0635C40.0081 68.9535 39.6659 68.2043 39.0554 67.8158C38.4449 67.4181 37.1268 67.2192 35.1011 67.2192C34.5831 67.2192 33.635 67.2331 32.2567 67.2608C31.9792 67.2701 31.7757 67.2747 31.6462 67.2747C31.6277 68.3847 31.6 69.7444 31.563 71.3539C31.526 72.9633 31.5029 74.0086 31.4936 74.4896H31.9237C32.4695 74.4896 33.1493 74.4988 33.9633 74.5173C34.7866 74.5266 35.3369 74.5312 35.6144 74.5312C36.9557 74.5312 37.839 74.4063 38.2645 74.1566C38.6993 73.9068 38.9351 73.4443 38.9721 72.7691L39.8462 72.8523C39.7815 73.4258 39.7306 73.9577 39.6936 74.4479C39.6659 74.9382 39.652 75.3914 39.652 75.8077C39.652 76.0482 39.6751 76.5662 39.7214 77.3617C39.7399 77.6484 39.7537 77.8658 39.763 78.0138L38.8611 78.0415V77.9305C38.8611 77.1443 38.6299 76.6124 38.1674 76.3349C37.7142 76.0574 36.6458 75.9187 34.9623 75.9187H32.4926H31.4936C31.4936 76.3719 31.489 77.0009 31.4798 77.8056C31.4705 78.6011 31.4659 79.1746 31.4659 79.5261C31.4659 80.1366 31.4705 80.7748 31.4798 81.4408C31.489 82.0976 31.5075 82.8699 31.5352 83.7579C31.9977 83.8134 32.5204 83.855 33.1031 83.8828C33.6951 83.9105 34.3426 83.9244 35.0456 83.9244C37.3673 83.9244 38.8935 83.7024 39.6242 83.2584C40.3642 82.8052 40.9516 81.9403 41.3863 80.6638L42.3853 80.9968C42.1078 81.7646 41.8627 82.5184 41.65 83.2584C41.4372 83.9984 41.2522 84.7338 41.095 85.4645C39.6427 85.409 38.2923 85.3674 37.0435 85.3397C35.7948 85.3119 34.6663 85.298 33.6581 85.298C32.2799 85.298 30.0599 85.3489 26.9982 85.4506L26.4987 85.4645V84.5627C26.5635 84.5719 26.6236 84.5812 26.6791 84.5904C26.7438 84.5904 26.8363 84.5904 26.9566 84.5904C28.1868 84.5904 28.8112 82.8607 28.8297 79.4012C28.8389 78.5318 28.8482 77.8519 28.8574 77.3617L28.9129 73.5738C28.9222 72.7599 28.9268 71.969 28.9268 71.2013C28.936 70.4335 28.9407 69.601 28.9407 68.7038C28.9407 67.9083 28.7927 67.3579 28.4967 67.0527C28.2007 66.7474 27.6734 66.5948 26.9149 66.5948H26.8039V65.6652ZM61.8933 66.3173C61.9118 67.0018 61.958 67.7002 62.032 68.4124C62.106 69.1154 62.2124 69.8369 62.3511 70.5769L61.2967 70.7989C61.0377 69.4854 60.4179 68.5142 59.4374 67.8852C58.4569 67.2562 57.0695 66.9417 55.275 66.9417C52.8515 66.9417 50.9692 67.6539 49.628 69.0784C48.296 70.5029 47.63 72.5194 47.63 75.1278C47.63 77.9305 48.3931 80.169 49.9193 81.8432C51.4456 83.5174 53.4667 84.3545 55.9826 84.3545C56.5099 84.3545 57.0417 84.3037 57.5782 84.2019C58.1147 84.0909 58.6836 83.9244 59.2848 83.7024C59.3126 82.9902 59.3311 82.3843 59.3403 81.8848C59.3588 81.3853 59.3681 80.9783 59.3681 80.6638C59.3681 79.0821 59.1923 78.134 58.8408 77.8195C58.4893 77.4958 57.717 77.3339 56.5237 77.3339H56.3295V76.4043C57.1157 76.4413 57.8418 76.469 58.5078 76.4875C59.1831 76.506 59.7519 76.5153 60.2144 76.5153C60.8897 76.5153 61.5186 76.506 62.1014 76.4875C62.6934 76.469 63.2576 76.4413 63.7941 76.4043V77.3339C63.0171 77.3339 62.5084 77.4865 62.2679 77.7918C62.0366 78.0878 61.921 79.0174 61.921 80.5806V82.0236C61.921 82.7358 61.9303 83.2908 61.9488 83.6886C61.9673 84.077 61.995 84.4517 62.032 84.8124C61.7268 84.8772 61.2689 84.9789 60.6584 85.1177C58.2627 85.6541 56.4497 85.9224 55.2195 85.9224C52.0098 85.9224 49.4383 84.9882 47.5051 83.1197C45.5812 81.2512 44.6192 78.7723 44.6192 75.6828C44.6192 72.5934 45.6552 70.082 47.7271 68.1488C49.8083 66.2063 52.5047 65.2351 55.8161 65.2351C56.8151 65.2351 57.8187 65.3276 58.8269 65.5126C59.8444 65.6883 60.8665 65.9566 61.8933 66.3173ZM74.2279 68.2737L71.0506 76.5708C71.2264 76.5708 71.4807 76.5754 71.8137 76.5847C72.859 76.6124 73.5712 76.6263 73.9505 76.6263C74.4129 76.6263 75.2501 76.6124 76.4618 76.5847C76.73 76.5754 76.9335 76.5708 77.0723 76.5708L74.2279 68.2737ZM73.6036 65.6652H75.99C77.1925 69.3374 78.3303 72.6905 79.4032 75.7244C80.4855 78.7584 81.3365 81.0385 81.9562 82.5647C82.3262 83.4434 82.6453 83.9845 82.9136 84.188C83.1818 84.3915 83.5657 84.4933 84.0652 84.4933H84.3427V85.4645C83.6212 85.4275 82.9598 85.3998 82.3586 85.3813C81.7666 85.3628 81.2671 85.3535 80.8601 85.3535C80.3421 85.3535 79.7732 85.3628 79.1535 85.3813C78.5338 85.3998 77.877 85.4275 77.1833 85.4645V84.4933H77.4469C78.1036 84.4933 78.5523 84.4193 78.7927 84.2713C79.0332 84.114 79.1535 83.8319 79.1535 83.4249C79.1535 83.2769 79.135 83.1151 79.098 82.9393C79.061 82.7543 79.0009 82.5369 78.9176 82.2872L77.5579 78.0415C77.2064 78.0415 76.7254 78.0369 76.1149 78.0276C75.0049 77.9999 74.2927 77.986 73.9782 77.986C73.3492 77.986 72.7526 77.9906 72.1884 77.9999C71.6334 77.9999 71.0552 78.0091 70.454 78.0276C69.7973 79.6834 69.3486 80.8905 69.1082 81.649C68.8677 82.4074 68.7474 82.9486 68.7474 83.2723C68.7474 83.7256 68.8677 84.0447 69.1082 84.2297C69.3486 84.4054 69.7788 84.4933 70.3985 84.4933H70.7731V85.4645C70.0979 85.4275 69.4643 85.3998 68.8723 85.3813C68.2895 85.3628 67.7669 85.3535 67.3044 85.3535C66.9344 85.3535 66.4719 85.3628 65.917 85.3813C65.362 85.3998 64.7607 85.4275 64.1132 85.4645V84.5072C64.77 84.4887 65.288 84.3592 65.6672 84.1187C66.0557 83.8689 66.3933 83.4573 66.6801 82.8838C67.1981 81.8016 68.1138 79.6371 69.4273 76.3904C70.75 73.1345 72.1421 69.5594 73.6036 65.6652ZM88.1582 84.4933H88.6438C89.3006 84.4933 89.7677 84.4147 90.0452 84.2574C90.3227 84.0909 90.5169 83.7903 90.6279 83.3556C90.7112 83.0688 90.7667 82.0282 90.7944 80.2337C90.8314 78.4393 90.8499 75.6458 90.8499 71.8534V67.4273H88.0472C86.6875 67.4273 85.7671 67.6123 85.2861 67.9823C84.8144 68.343 84.4629 69.1108 84.2317 70.2855L83.3298 70.0913C83.5055 69.2865 83.6397 68.4957 83.7322 67.7187C83.8247 66.9417 83.8709 66.1786 83.8709 65.4293C84.1484 65.6051 84.708 65.73 85.5498 65.804C86.4008 65.878 87.8854 65.915 90.0036 65.915H93.389C96.201 65.915 98.0093 65.8826 98.8141 65.8178C99.628 65.7438 100.197 65.6143 100.521 65.4293C100.521 65.5218 100.516 65.6698 100.507 65.8733C100.498 66.0676 100.493 66.2156 100.493 66.3173C100.493 66.9001 100.516 67.5013 100.562 68.121C100.618 68.7408 100.696 69.379 100.798 70.0358L99.924 70.2023C99.813 69.157 99.5263 68.4448 99.0638 68.0655C98.6106 67.6863 97.6486 67.4736 96.1778 67.4273H93.5555C93.5463 67.9546 93.537 68.6992 93.5278 69.6611C93.5093 72.1864 93.5 73.8837 93.5 74.7532C93.5 78.0369 93.5185 80.2615 93.5555 81.427C93.6018 82.5924 93.6758 83.3186 93.7775 83.6053C93.8978 83.9383 94.0966 84.1695 94.3741 84.299C94.6516 84.4285 95.0771 84.4933 95.6506 84.4933H96.1362V85.4645C95.3685 85.4275 94.6424 85.3998 93.9579 85.3813C93.2826 85.3628 92.6768 85.3535 92.1403 85.3535C91.6685 85.3535 91.0858 85.3628 90.3921 85.3813C89.7076 85.3998 88.963 85.4275 88.1582 85.4645V84.4933ZM106.084 84.4933H106.57C107.227 84.4933 107.694 84.4147 107.971 84.2574C108.249 84.0909 108.443 83.7903 108.554 83.3556C108.637 83.0688 108.693 82.0282 108.721 80.2337C108.758 78.4393 108.776 75.6458 108.776 71.8534V67.4273H105.973C104.614 67.4273 103.693 67.6123 103.212 67.9823C102.741 68.343 102.389 69.1108 102.158 70.2855L101.256 70.0913C101.432 69.2865 101.566 68.4957 101.658 67.7187C101.751 66.9417 101.797 66.1786 101.797 65.4293C102.075 65.6051 102.634 65.73 103.476 65.804C104.327 65.878 105.812 65.915 107.93 65.915H111.315C114.127 65.915 115.936 65.8826 116.74 65.8178C117.554 65.7438 118.123 65.6143 118.447 65.4293C118.447 65.5218 118.442 65.6698 118.433 65.8733C118.424 66.0676 118.419 66.2156 118.419 66.3173C118.419 66.9001 118.442 67.5013 118.488 68.121C118.544 68.7408 118.623 69.379 118.724 70.0358L117.85 70.2023C117.739 69.157 117.453 68.4448 116.99 68.0655C116.537 67.6863 115.575 67.4736 114.104 67.4273H111.482C111.472 67.9546 111.463 68.6992 111.454 69.6611C111.435 72.1864 111.426 73.8837 111.426 74.7532C111.426 78.0369 111.445 80.2615 111.482 81.427C111.528 82.5924 111.602 83.3186 111.704 83.6053C111.824 83.9383 112.023 84.1695 112.3 84.299C112.578 84.4285 113.003 84.4933 113.577 84.4933H114.062V85.4645C113.295 85.4275 112.569 85.3998 111.884 85.3813C111.209 85.3628 110.603 85.3535 110.067 85.3535C109.595 85.3535 109.012 85.3628 108.318 85.3813C107.634 85.3998 106.889 85.4275 106.084 85.4645V84.4933ZM137.788 75.9742C137.788 73.2825 137.095 71.0764 135.707 69.3559C134.32 67.6262 132.571 66.7613 130.462 66.7613C128.437 66.7613 126.809 67.5013 125.579 68.9813C124.358 70.4613 123.747 72.4407 123.747 74.9197C123.747 77.6761 124.441 79.9377 125.828 81.7045C127.225 83.4712 128.969 84.3545 131.059 84.3545C133.076 84.3545 134.699 83.5961 135.929 82.0791C137.169 80.5529 137.788 78.5179 137.788 75.9742ZM130.768 65.2073C132.174 65.2073 133.427 65.4108 134.528 65.8178C135.638 66.2156 136.641 66.8353 137.539 67.6771C138.612 68.6945 139.43 69.8739 139.994 71.2151C140.568 72.5564 140.855 73.9808 140.855 75.4886C140.855 77.024 140.554 78.4763 139.953 79.8452C139.352 81.2142 138.496 82.3936 137.386 83.3833C136.498 84.1788 135.462 84.8032 134.278 85.2564C133.103 85.7004 131.924 85.9224 130.74 85.9224C129.26 85.9224 127.896 85.6495 126.647 85.1038C125.407 84.558 124.311 83.7487 123.359 82.6757C122.489 81.6952 121.823 80.5945 121.361 79.3735C120.907 78.1525 120.681 76.8668 120.681 75.5163C120.681 74.0548 120.954 72.6766 121.499 71.3816C122.054 70.0774 122.854 68.935 123.9 67.9546C124.843 67.0666 125.907 66.3867 127.091 65.915C128.275 65.4432 129.5 65.2073 130.768 65.2073Z" fill="white"/>
</svg>
